<svg width="17" height="17" viewBox="0 0 17 17" fill="none" xmlns="http://www.w3.org/2000/svg">
<path d="M15.4501 1.47929C15.8018 1.83108 15.9994 2.30813 15.9994 2.80555C15.9994 3.30298 15.8018 3.78003 15.4501 4.13182C15.8518 5.25373 15.9406 6.46382 15.707 7.63236C15.4734 8.80089 14.9261 9.88381 14.1239 10.765L12.1335 12.7535C11.7711 13.2158 11.5222 13.7567 11.407 14.3328C11.2919 14.9089 11.3136 15.5039 11.4704 16.0701L0.859375 5.45996C1.42538 5.61664 2.02026 5.63827 2.59614 5.52309C3.17203 5.40792 3.71283 5.15915 4.17503 4.79682L6.16442 2.80555C7.04562 2.00334 8.12854 1.45608 9.29707 1.22244C10.4656 0.988795 11.6757 1.07759 12.7976 1.47929C13.1494 1.12762 13.6265 0.930054 14.1239 0.930054C14.6213 0.930054 15.0984 1.12762 15.4501 1.47929V1.47929Z" stroke="white" stroke-width="1.5" stroke-linecap="round" stroke-linejoin="round"/>
<path d="M4.17486 8.77466L3.51173 9.43779C2.98398 9.96553 2.6875 10.6813 2.6875 11.4277C2.6875 12.174 2.98398 12.8898 3.51173 13.4175C4.03947 13.9453 4.75525 14.2417 5.50159 14.2417C6.24793 14.2417 6.96371 13.9453 7.49145 13.4175L8.15459 12.7544" stroke="white" stroke-width="1.5" stroke-linecap="round" stroke-linejoin="round"/>
</svg>
