<svg width="14" height="16" viewBox="0 0 14 16" fill="none" xmlns="http://www.w3.org/2000/svg">
<path d="M2.55664 4.11111C2.55664 4.93623 2.88442 5.72755 3.46786 6.311C4.05131 6.89445 4.84263 7.22222 5.66775 7.22222C6.49287 7.22222 7.28419 6.89445 7.86764 6.311C8.45109 5.72755 8.77886 4.93623 8.77886 4.11111C8.77886 3.28599 8.45109 2.49467 7.86764 1.91122C7.28419 1.32778 6.49287 1 5.66775 1C4.84263 1 4.05131 1.32778 3.46786 1.91122C2.88442 2.49467 2.55664 3.28599 2.55664 4.11111Z" stroke="#23C37D" stroke-width="1.5" stroke-linecap="round" stroke-linejoin="round"/>
<path d="M1 14.9999V13.4444C1 12.6192 1.32778 11.8279 1.91122 11.2445C2.49467 10.661 3.28599 10.3333 4.11111 10.3333H7.22222" stroke="#23C37D" stroke-width="1.5" stroke-linecap="round" stroke-linejoin="round"/>
<path d="M8 13.4445L9.55555 15L12.6667 11.8889" stroke="#23C37D" stroke-width="1.5" stroke-linecap="round" stroke-linejoin="round"/>
</svg>
